<svg xmlns="http://www.w3.org/2000/svg" viewBox="0 0 200 200" width="200" height="200">
  <!-- Background circle -->
  <circle cx="100" cy="100" r="100" fill="#FDE8ED"/>
  <!-- Head -->
  <ellipse cx="100" cy="100" rx="52" ry="46" fill="#E8617A"/>
  <!-- Left gills -->
  <line x1="48" y1="80" x2="18" y2="58" stroke="#C4475C" stroke-width="5" stroke-linecap="round"/>
  <line x1="48" y1="88" x2="12" y2="78" stroke="#C4475C" stroke-width="5" stroke-linecap="round"/>
  <line x1="48" y1="98" x2="16" y2="96" stroke="#C4475C" stroke-width="5" stroke-linecap="round"/>
  <circle cx="18" cy="58" r="4" fill="#C4475C"/>
  <circle cx="12" cy="78" r="4" fill="#C4475C"/>
  <circle cx="16" cy="96" r="4" fill="#C4475C"/>
  <!-- Right gills -->
  <line x1="152" y1="80" x2="182" y2="58" stroke="#C4475C" stroke-width="5" stroke-linecap="round"/>
  <line x1="152" y1="88" x2="188" y2="78" stroke="#C4475C" stroke-width="5" stroke-linecap="round"/>
  <line x1="152" y1="98" x2="184" y2="96" stroke="#C4475C" stroke-width="5" stroke-linecap="round"/>
  <circle cx="182" cy="58" r="4" fill="#C4475C"/>
  <circle cx="188" cy="78" r="4" fill="#C4475C"/>
  <circle cx="184" cy="96" r="4" fill="#C4475C"/>
  <!-- Eyes -->
  <circle cx="82" cy="92" r="7" fill="#1A1A1A"/>
  <circle cx="84" cy="89" r="2.5" fill="#FFFFFF"/>
  <circle cx="118" cy="92" r="7" fill="#1A1A1A"/>
  <circle cx="120" cy="89" r="2.5" fill="#FFFFFF"/>
  <!-- Smile -->
  <path d="M85 112 Q100 126 115 112" fill="none" stroke="#C4475C" stroke-width="3" stroke-linecap="round"/>
</svg>
